<svg width="39" height="39" viewBox="0 0 39 39" fill="none" xmlns="http://www.w3.org/2000/svg">
<path d="M35.7502 3.25C28.1669 0 19.5002 0 19.5002 0C19.5002 0 10.8335 0 3.2502 3.25C0.000200661 19.5 3.2502 33.5833 19.5002 39C35.7502 33.5833 39.0002 19.5 35.7502 3.25Z" fill="#CCD6DD"/>
<path d="M19.5 36.7077C6.94637 32.2064 2.12446 21.4836 5.15671 4.81433C11.985 2.19808 19.422 2.16667 19.5 2.16667C19.577 2.16667 27.0379 2.21 33.8434 4.81433C36.8756 21.4836 32.0537 32.2064 19.5 36.7077Z" fill="#00D5FF"/>
<path d="M33.8433 4.81433C27.0378 2.21 19.5769 2.16667 19.5 2.16667V36.7077C32.0537 32.2064 36.8756 21.4836 33.8433 4.81433Z" fill="#1E5FA9"/>
</svg>
